<?xml version="1.0" standalone="no"?>
<!DOCTYPE svg PUBLIC "-//W3C//DTD SVG 20010904//EN"
 "http://www.w3.org/TR/2001/REC-SVG-20010904/DTD/svg10.dtd">
<svg version="1.0" xmlns="http://www.w3.org/2000/svg"
 width="355.000000pt" height="468.000000pt" viewBox="0 0 355.000000 468.000000"
 preserveAspectRatio="xMidYMid meet">

<g transform="translate(0.000000,468.000000) scale(0.100000,-0.100000)"
fill="#000000" stroke="none">
<path d="M0 2340 l0 -2340 1775 0 1775 0 0 2340 0 2340 -692 0 c-671 0 -696
-1 -798 -22 -148 -30 -364 -30 -510 0 -102 21 -123 22 -827 22 l-723 0 0
-2340z m1534 1518 c7 -13 16 -63 19 -113 11 -163 46 -228 175 -317 117 -81
268 -91 403 -26 41 19 109 63 153 97 43 33 84 61 90 61 6 0 22 -7 34 -16 48
-34 35 -54 -186 -278 -137 -140 -217 -229 -235 -263 -31 -58 -57 -164 -57
-235 0 -58 -29 -85 -73 -69 -30 12 -43 47 -57 154 -11 89 -14 97 -40 97 -26 0
-30 -19 -30 -153 l0 -122 86 -44 c87 -45 234 -170 263 -225 8 -14 18 -26 23
-26 5 0 8 50 6 111 l-2 111 61 59 c96 93 143 76 143 -51 l1 -65 77 80 c112
116 153 208 121 278 -12 26 -84 77 -110 77 -9 0 -37 -16 -62 -35 -50 -38 -77
-43 -101 -19 -57 57 43 177 166 199 102 19 239 -75 272 -185 31 -106 14 -206
-54 -313 l-30 -48 103 -101 c124 -123 169 -147 299 -158 97 -8 118 -19 118
-65 0 -32 -28 -52 -83 -59 -115 -17 -146 -33 -243 -127 l-92 -89 223 0 c200 0
225 -2 245 -18 27 -22 30 -70 6 -87 -9 -7 -39 -16 -68 -19 -52 -7 -107 -30
-120 -50 -4 -6 -8 -190 -8 -409 0 -309 3 -399 13 -402 6 -2 50 -6 97 -9 65 -4
88 -9 97 -22 35 -48 8 -78 -102 -115 -174 -58 -287 -133 -658 -431 -81 -65
-153 -121 -160 -123 -7 -3 -27 13 -45 35 -31 38 -32 41 -18 62 23 33 19 80
-10 124 -82 121 -277 334 -353 387 -60 41 -140 71 -145 55 -3 -7 -7 -120 -11
-251 -3 -130 -8 -244 -12 -252 -7 -21 -50 -30 -77 -17 -21 9 -23 18 -29 124
-4 62 -7 182 -7 267 l0 154 -70 -5 c-130 -10 -252 -94 -310 -213 -47 -97 -36
-167 31 -204 48 -27 62 -51 50 -84 -16 -42 -69 -49 -137 -18 -80 37 -118 117
-118 251 0 150 71 293 201 409 69 61 190 125 270 142 69 14 88 29 80 61 -6 22
-10 23 -109 23 -363 1 -743 215 -913 515 -88 155 -121 307 -112 523 8 191 35
294 126 476 60 118 126 200 301 371 120 118 168 172 199 227 22 39 41 78 41
87 0 9 -16 20 -42 27 -72 21 -93 52 -68 100 9 16 22 19 73 19 73 0 139 -28
171 -73 44 -60 16 -177 -78 -332 -25 -41 -42 -75 -38 -75 15 1 91 65 184 156
83 81 100 102 113 147 21 71 35 168 35 252 0 84 16 115 60 115 20 0 34 -8 44
-22z"/>
<path d="M1462 3858 c-6 -7 -13 -56 -17 -108 -7 -108 -21 -199 -37 -250 -22
-71 -328 -353 -354 -327 -3 2 16 35 41 73 170 256 163 405 -19 430 -55 8 -92
0 -100 -22 -13 -33 4 -53 60 -69 30 -9 57 -22 60 -30 4 -8 -15 -52 -42 -97
-38 -68 -78 -114 -214 -248 -183 -180 -227 -235 -289 -358 -110 -220 -148
-422 -121 -646 38 -316 200 -546 499 -710 167 -92 337 -136 522 -136 l109 0 0
-45 c0 -28 -5 -47 -12 -49 -7 -2 -44 -11 -83 -20 -192 -48 -373 -212 -435
-396 -18 -54 -21 -81 -18 -160 6 -139 46 -205 140 -230 50 -14 76 -5 85 28 5
20 1 29 -18 41 -13 9 -39 30 -58 47 -31 28 -34 36 -33 82 2 99 98 239 200 291
52 26 145 51 193 51 30 0 38 -4 42 -23 3 -12 6 -132 7 -267 0 -216 3 -246 17
-257 22 -17 38 -16 57 3 13 12 16 40 16 142 0 70 3 185 7 255 l6 129 31 -6
c105 -21 231 -127 399 -335 122 -152 135 -179 113 -234 -15 -38 -14 -41 7 -68
12 -15 26 -28 31 -28 5 -1 40 25 78 56 73 61 95 78 334 263 160 123 301 203
423 241 76 23 99 45 82 78 -8 15 -26 19 -105 24 -52 3 -100 8 -106 12 -11 7
-15 772 -4 813 8 29 69 60 131 69 63 8 83 19 83 46 0 45 -10 47 -262 47 -131
0 -238 3 -238 8 0 4 42 49 93 100 101 100 148 126 253 138 59 7 91 34 78 68
-7 18 -21 22 -109 31 -128 13 -160 30 -286 150 -64 60 -117 115 -118 121 0 6
15 38 34 70 66 109 80 215 41 309 -20 48 -85 115 -131 136 -58 27 -141 25
-196 -4 -56 -30 -104 -95 -95 -130 10 -40 34 -41 90 -2 71 49 103 47 161 -8
42 -40 45 -47 45 -93 0 -73 -40 -144 -139 -246 -46 -49 -88 -88 -92 -88 -5 0
-9 38 -9 85 0 73 -3 86 -19 95 -28 15 -27 15 -92 -47 l-59 -56 0 -118 c0 -65
-4 -120 -9 -124 -6 -3 -23 14 -40 39 -53 77 -177 182 -273 231 l-88 46 1 67
c1 37 4 100 8 141 6 71 7 75 34 84 40 13 47 2 58 -89 15 -122 26 -153 54 -160
40 -10 55 11 55 75 0 71 23 160 58 225 17 33 101 127 235 262 114 117 207 215
207 218 0 20 -23 46 -40 46 -11 0 -57 -28 -103 -63 -91 -69 -177 -112 -261
-129 -139 -27 -312 47 -417 178 -36 46 -47 83 -60 214 -12 109 -20 130 -49
130 -10 0 -22 -6 -28 -12z m38 -172 c0 -19 9 -63 20 -98 17 -55 29 -74 82
-125 101 -96 193 -143 309 -158 98 -12 232 29 346 106 26 18 46 30 43 26 -3
-3 -78 -80 -167 -170 -146 -149 -165 -173 -203 -251 -29 -60 -44 -105 -47
-146 -6 -59 -23 -75 -23 -20 0 53 -21 127 -42 150 -17 18 -28 21 -60 17 -49
-7 -74 -29 -82 -70 -8 -47 -11 -296 -3 -303 4 -4 31 -17 61 -29 112 -46 250
-161 323 -271 20 -30 39 -54 42 -54 4 0 22 15 40 34 l33 34 -7 108 -7 109 47
45 46 45 -3 -123 c-2 -67 0 -122 3 -122 18 0 251 243 277 289 67 118 63 202
-12 277 -68 69 -144 75 -208 17 -10 -9 -18 -11 -18 -5 0 18 59 61 100 72 118
32 240 -80 240 -221 0 -71 -25 -140 -74 -209 -20 -28 -36 -54 -36 -58 0 -5 57
-65 128 -134 138 -135 186 -163 299 -175 49 -5 66 -23 23 -23 -11 0 -45 -10
-77 -21 -50 -19 -78 -41 -195 -157 -76 -75 -138 -140 -138 -144 0 -4 114 -8
253 -8 l252 -1 -49 -19 c-27 -11 -62 -32 -78 -46 l-28 -28 0 -432 0 -432 31
-11 c18 -6 53 -11 78 -12 47 0 107 -17 68 -18 -30 -1 -166 -61 -244 -107 -82
-48 -211 -145 -430 -320 -181 -146 -179 -144 -159 -106 21 41 20 90 -2 133
-28 55 -232 298 -312 372 -39 36 -98 80 -131 96 -56 28 -164 59 -173 50 -7 -7
-15 -130 -18 -269 -2 -125 -3 -119 -8 70 l-5 205 -58 3 c-178 9 -349 -92 -428
-254 -57 -115 -49 -197 24 -259 46 -39 38 -47 -13 -12 -51 34 -72 78 -78 162
-15 238 196 480 466 535 l87 17 -3 89 c-2 49 -4 90 -6 91 -1 1 -33 -2 -71 -8
-150 -22 -359 23 -549 118 -249 124 -416 321 -481 563 -28 105 -32 342 -7 460
53 254 175 453 405 655 132 117 247 282 247 354 0 24 -8 36 -37 57 l-38 26 30
-6 c38 -8 85 -59 85 -91 0 -60 -72 -202 -193 -379 -33 -47 -34 -66 -4 -66 68
0 199 91 348 239 99 99 107 110 123 170 10 35 20 97 23 137 6 74 23 104 23 40z"/>
<path d="M1416 3154 c-14 -13 -16 -51 -16 -261 l0 -245 31 6 c17 3 60 6 95 6
l64 0 0 83 c-1 101 -16 265 -30 318 -13 48 -72 109 -105 109 -13 0 -31 -7 -39
-16z m73 -60 c33 -41 42 -88 48 -246 l6 -148 -52 0 -51 0 0 194 c0 237 5 256
49 200z"/>
<path d="M1460 2907 l0 -198 33 3 32 3 -2 120 c-3 139 -16 215 -43 247 -19 23
-19 21 -20 -175z"/>
<path d="M955 2969 c-90 -63 -103 -77 -115 -133 -18 -80 -24 -358 -11 -461 18
-132 70 -295 103 -323 18 -14 47 0 86 40 l32 34 -2 439 c-3 382 -5 440 -18
442 -8 2 -42 -16 -75 -38z m55 -436 c0 -355 -2 -398 -17 -415 -35 -39 -47 -26
-87 97 -37 112 -52 309 -37 482 6 72 13 138 17 147 8 21 92 86 110 86 12 0 14
-69 14 -397z"/>
<path d="M938 2877 c-33 -28 -39 -40 -48 -97 -13 -84 -13 -356 0 -440 6 -36
22 -100 37 -142 25 -72 42 -93 58 -68 5 9 10 630 6 753 -1 35 -8 34 -53 -6z"/>
<path d="M1400 2408 c0 -116 15 -145 96 -186 l57 -29 -97 -6 c-144 -10 -286
-53 -325 -101 -16 -19 6 -54 57 -89 53 -37 86 -47 150 -47 88 0 129 16 184 71
37 37 48 44 43 27 -8 -25 -50 -85 -75 -106 -98 -83 -293 -65 -366 34 -15 22
-31 43 -36 48 -11 14 -38 -57 -38 -99 0 -56 22 -95 91 -161 114 -108 260 -178
397 -191 l65 -6 -6 422 c-4 233 -10 428 -13 433 -8 13 -150 78 -170 78 -11 0
-14 -19 -14 -92z m103 6 c43 -23 47 -30 47 -101 0 -56 -2 -63 -20 -63 -11 0
-34 13 -52 29 -27 24 -32 36 -36 90 -5 69 3 75 61 45z m37 -286 c0 -6 -11 -30
-25 -54 -57 -96 -227 -116 -317 -36 -26 22 -23 26 30 51 91 42 312 70 312 39z
m-322 -273 c100 -33 235 -11 299 48 13 11 25 19 27 16 2 -2 5 -71 7 -154 5
-177 9 -172 -118 -130 -156 52 -333 188 -333 256 l0 30 33 -25 c17 -13 56 -32
85 -41z"/>
<path d="M1460 2366 c0 -49 3 -57 33 -82 l32 -27 3 53 c4 65 2 71 -37 93 l-31
18 0 -55z"/>
<path d="M1381 2118 c-72 -10 -176 -48 -175 -63 1 -5 19 -20 40 -32 80 -46
210 -20 254 51 11 19 20 38 20 45 0 13 -46 13 -139 -1z"/>
<path d="M1482 1863 c-92 -54 -232 -48 -354 15 -5 2 -8 -3 -8 -11 0 -20 106
-114 173 -155 59 -36 184 -82 222 -82 l25 0 0 130 c0 72 -3 130 -7 129 -5 -1
-27 -12 -51 -26z"/>
<path d="M1656 2238 c-3 -67 -8 -246 -11 -395 l-6 -273 31 0 c39 0 121 20 138
33 11 9 13 62 10 267 l-3 257 -42 84 c-23 46 -57 99 -76 117 l-35 34 -6 -124z
m87 -61 c21 -40 22 -52 22 -296 l0 -255 -34 -8 c-18 -5 -36 -7 -38 -4 -15 14
4 619 19 610 4 -3 18 -24 31 -47z"/>
<path d="M1706 1909 c-4 -149 -5 -273 -2 -276 3 -3 17 -3 31 1 l25 6 0 218 c0
167 -4 230 -15 270 -9 29 -19 52 -24 52 -4 0 -11 -122 -15 -271z"/>
<path d="M2240 2287 c0 -24 -2 -100 -5 -168 l-5 -124 50 99 c27 55 53 102 56
105 15 16 -45 -181 -81 -264 -22 -50 -41 -175 -27 -175 4 0 78 71 165 158
l158 158 -142 119 c-78 66 -148 124 -156 128 -10 6 -13 -2 -13 -36z m161 -150
c8 -7 31 -25 49 -40 l33 -28 -94 -95 c-51 -52 -96 -94 -100 -94 -3 0 9 37 27
83 18 45 39 106 45 135 13 56 15 58 40 39z"/>
<path d="M2380 2117 c0 -8 -13 -54 -30 -102 l-29 -89 71 71 71 71 -34 31 c-37
34 -49 38 -49 18z"/>
<path d="M2141 2247 c-20 -22 -21 -33 -21 -210 0 -103 4 -187 8 -187 5 0 18
14 30 30 22 29 23 39 22 205 -1 96 -5 177 -9 180 -5 2 -18 -6 -30 -18z"/>
<path d="M2153 1763 l-33 -41 0 -164 0 -165 -145 -79 c-79 -43 -144 -81 -145
-84 0 -3 30 -11 67 -18 83 -16 177 -53 268 -106 106 -62 277 -236 387 -396 16
-24 17 1 15 465 l-2 490 -170 0 -170 0 -10 -225 c-10 -235 -11 -228 -23 140
l-7 224 -32 -41z m375 -532 c1 -212 -1 -388 -6 -393 -4 -4 -27 17 -51 47 -44
55 -143 153 -194 193 l-29 21 7 253 c4 139 10 257 12 261 2 4 62 6 131 5 l127
-3 3 -384z m-373 35 c4 -46 4 -89 1 -95 -5 -7 -21 -4 -49 10 -23 12 -64 29
-90 38 -27 9 -48 20 -48 25 0 8 158 104 173 105 3 1 9 -37 13 -83z"/>
<path d="M2276 1568 c-10 -68 -14 -468 -4 -468 5 0 61 -52 124 -115 l114 -116
0 366 0 365 -115 0 -114 0 -5 -32z"/>
<path d="M2105 1314 c-11 -9 -42 -27 -69 -41 l-50 -25 57 -24 c105 -42 97 -45
97 35 0 39 -3 71 -7 71 -5 0 -17 -8 -28 -16z"/>
<path d="M1725 1464 c-45 -19 -82 -41 -86 -51 -4 -10 -8 -52 -8 -94 l-1 -76
61 -7 c34 -3 77 -6 95 -6 l34 0 0 135 c0 74 -3 134 -7 134 -5 -1 -44 -16 -88
-35z m45 -119 l0 -75 -45 0 -45 0 0 60 c0 59 1 61 33 75 55 24 57 22 57 -60z"/>
<path d="M1713 1390 c-19 -8 -23 -17 -23 -54 0 -37 3 -45 23 -50 44 -12 47 -9
47 54 0 63 -4 67 -47 50z"/>
</g>
</svg>
